<?xml version="1.0" encoding="utf-8"?>
<!-- Generator: Adobe Illustrator 23.0.0, SVG Export Plug-In . SVG Version: 6.00 Build 0)  -->
<svg xmlns="http://www.w3.org/2000/svg" viewBox="0 0 615.6 135.73"><defs><style>.cls-1{fill:#fff;}</style></defs><title>RP-Logo</title><g id="Layer_2" data-name="Layer 2"><g id="Layer_1-2" data-name="Layer 1"><path class="cls-1" d="M53.19,85.53l-7.08-12.2c-1.66.12-3.45.35-5.23.35H25.79V85.45H0V3H40.88c9.75,0,18.3,3,25.2,9.86A34.67,34.67,0,0,1,76.53,38a34,34,0,0,1-8,22.34l18.78,25ZM40.88,47.89a9.81,9.81,0,0,0,0-19.61H25.79V47.89Z"/><path class="cls-1" d="M157.1,13.19a43.91,43.91,0,0,0-62.51,0,42.75,42.75,0,0,0-13,31.26,43.1,43.1,0,0,0,13,31.25,44.17,44.17,0,0,0,62.51,0,42.71,42.71,0,0,0,13.08-31.25A42.37,42.37,0,0,0,157.1,13.19ZM138.92,57.64a18.79,18.79,0,0,1-26.26,0,18.3,18.3,0,0,1-5.35-13.19,17.85,17.85,0,0,1,5.35-13.08,18.52,18.52,0,0,1,26.26,0,17.22,17.22,0,0,1,5.59,13.08A17.64,17.64,0,0,1,138.92,57.64Z"/><path class="cls-1" d="M250.57,59.42a25.59,25.59,0,0,1-7.49,18.3c-4.63,4.76-11.05,7.73-21.63,7.73h-44V3.09L214.91,3c10.94,0,15.93,2.62,20.8,7.49s6.18,10.69,6.18,17.47c0,5.7-1.78,9.51-3.68,11.17a8.23,8.23,0,0,1,4.87,2.49A24,24,0,0,1,250.57,59.42ZM202.32,22V34H214a7,7,0,0,0,5.11-1.78,6.13,6.13,0,0,0,1.79-4.28,5.89,5.89,0,0,0-6-5.94Zm25.31,37.43a6.22,6.22,0,0,0-6.18-6.18H202.32v12.6h17.59c3,0,4.75-.83,5.82-1.9A6.29,6.29,0,0,0,227.63,59.42Z"/><path class="cls-1" d="M312.89,63.7h10.22V85.45H312.89a25,25,0,0,1-13.54-3.8,28.52,28.52,0,0,1-15.81,4.75,26.75,26.75,0,0,1-19.61-8.2,26.77,26.77,0,0,1-8.2-19.49,28.26,28.26,0,0,1,8.56-20.44A25.68,25.68,0,0,1,261.79,27a26.06,26.06,0,0,1,7.84-19,26.13,26.13,0,0,1,19.14-8,27.14,27.14,0,0,1,24.12,14.74l-19.73,10.1c-1.54-1.9-2.85-2.62-4.63-2.62a4.11,4.11,0,0,0-.47,8.2h35.17l-1.78,22.82h-10.1v8.92A1.89,1.89,0,0,0,312.89,63.7ZM290.31,53.24h-5.94a5.6,5.6,0,0,0-5.82,5.47c0,2.26.12,3.8,1.78,5.46a7.33,7.33,0,0,0,4,1.55,5.78,5.78,0,0,0,5.94-5.82Z"/><path class="cls-1" d="M396.15,63.22A34.49,34.49,0,0,1,371,73.56H356V85.45H330.2V3H371c9.75,0,18.3,3.21,25.19,10.1A34.27,34.27,0,0,1,406.5,38.15,34.05,34.05,0,0,1,396.15,63.22ZM371,28.4H356V48h15a9.81,9.81,0,0,0,9.75-9.86A9.64,9.64,0,0,0,371,28.4Z"/><path class="cls-1" d="M455.55,74.63H429.29l-3.81,10.94-27.09-.12L427,3h30.66l28.64,82.48h-27Zm-7.37-21-5.82-16.76L436.54,53.6Z"/><path class="cls-1" d="M557,3.09V53.24A34.11,34.11,0,0,1,546.7,78.32a35.43,35.43,0,0,1-50.27,0,34.07,34.07,0,0,1-10.34-25.08V3.09h25.67V53.24a9.81,9.81,0,0,0,19.61,0V3.09Z"/><path class="cls-1" d="M615.6,85.45H563.79V3h25.55V59.78H615.6Z"/><path class="cls-1" d="M19.85,125.39a11.1,11.1,0,0,1-.74,4.09,9.24,9.24,0,0,1-5.32,5.29,11.5,11.5,0,0,1-4.2.74H1.87V115.27H9.59a11.3,11.3,0,0,1,4.2.75A9.51,9.51,0,0,1,17,118.1a9.35,9.35,0,0,1,2.09,3.2A11,11,0,0,1,19.85,125.39Zm-3.86,0a9.25,9.25,0,0,0-.45-3,6.21,6.21,0,0,0-1.27-2.24,5.67,5.67,0,0,0-2-1.41,7,7,0,0,0-2.66-.49H5.65v14.25H9.59a6.78,6.78,0,0,0,2.66-.49,5.52,5.52,0,0,0,2-1.4,6.21,6.21,0,0,0,1.27-2.24A9.25,9.25,0,0,0,16,125.39Z"/><path class="cls-1" d="M57.75,135.51H54V115.27h3.78Z"/><path class="cls-1" d="M109.76,125.36v8.19a10.63,10.63,0,0,1-3.29,1.66,12.84,12.84,0,0,1-3.73.52,12.24,12.24,0,0,1-4.48-.77,9.84,9.84,0,0,1-3.43-2.14,9.39,9.39,0,0,1-2.2-3.27,11.08,11.08,0,0,1-.77-4.16,11.35,11.35,0,0,1,.75-4.19A9.21,9.21,0,0,1,98,115.8a11.89,11.89,0,0,1,4.37-.76,13,13,0,0,1,2.31.2,11.45,11.45,0,0,1,2,.54,8.76,8.76,0,0,1,1.68.83,10.62,10.62,0,0,1,1.38,1.08l-1.08,1.71a1,1,0,0,1-.65.49,1.18,1.18,0,0,1-.89-.2l-.92-.53a5.73,5.73,0,0,0-1-.46,9.35,9.35,0,0,0-1.27-.33,9.87,9.87,0,0,0-1.63-.12,7.07,7.07,0,0,0-2.71.5,5.84,5.84,0,0,0-2.07,1.44,6.4,6.4,0,0,0-1.31,2.26,8.8,8.8,0,0,0-.47,2.94,9,9,0,0,0,.5,3.1,6.53,6.53,0,0,0,1.4,2.31,5.93,5.93,0,0,0,2.18,1.44,7.8,7.8,0,0,0,2.84.5,7.61,7.61,0,0,0,2-.24,9.91,9.91,0,0,0,1.72-.64v-3.67h-2.54a.74.74,0,0,1-.57-.21.64.64,0,0,1-.2-.49v-2.13Z"/><path class="cls-1" d="M148,135.51H144.2V115.27H148Z"/><path class="cls-1" d="M197.44,118.36h-6.11v17.15h-3.76V118.36h-6.11v-3.09h16Z"/><path class="cls-1" d="M246.27,135.51h-2.91a1.27,1.27,0,0,1-.8-.24,1.62,1.62,0,0,1-.46-.61l-1.51-4.13H232.2l-1.51,4.13a1.32,1.32,0,0,1-.44.58,1.18,1.18,0,0,1-.79.27h-2.94l8-20.24h3.84Zm-6.65-7.64-2.46-6.74c-.12-.3-.25-.65-.38-1.06s-.26-.86-.39-1.33c-.12.47-.25.92-.38,1.34s-.26.77-.38,1.08l-2.45,6.71Z"/><path class="cls-1" d="M291,132.4v3.11H279.17V115.27h3.77V132.4Z"/><path class="cls-1" d="M379.26,125.39a10.9,10.9,0,0,1-.75,4.09,9.33,9.33,0,0,1-2.08,3.2,9.42,9.42,0,0,1-3.24,2.09,11.5,11.5,0,0,1-4.2.74h-7.71V115.27H369a11.3,11.3,0,0,1,4.2.75,9.55,9.55,0,0,1,3.24,2.08,9.33,9.33,0,0,1,2.08,3.2A10.83,10.83,0,0,1,379.26,125.39Zm-3.87,0a9.54,9.54,0,0,0-.44-3,6.21,6.21,0,0,0-1.27-2.24,5.67,5.67,0,0,0-2-1.41,7.06,7.06,0,0,0-2.67-.49h-3.93v14.25H369a6.87,6.87,0,0,0,2.67-.49,5.52,5.52,0,0,0,2-1.4,6.21,6.21,0,0,0,1.27-2.24A9.54,9.54,0,0,0,375.39,125.39Z"/><path class="cls-1" d="M417.15,118.26v5.62h7.09v2.89h-7.09v5.73h9v3H413.37V115.27h12.77v3Z"/><path class="cls-1" d="M471.05,119a1.45,1.45,0,0,1-.35.43.89.89,0,0,1-.47.13,1.17,1.17,0,0,1-.64-.22l-.82-.48a6.38,6.38,0,0,0-1.11-.48,4.58,4.58,0,0,0-1.51-.22,4.36,4.36,0,0,0-1.37.19,2.91,2.91,0,0,0-1,.52,2.15,2.15,0,0,0-.59.81,2.63,2.63,0,0,0-.2,1,1.84,1.84,0,0,0,.4,1.19,3.58,3.58,0,0,0,1.06.81,10.64,10.64,0,0,0,1.5.6l1.72.57a15.11,15.11,0,0,1,1.72.7,5.73,5.73,0,0,1,1.5,1A4.53,4.53,0,0,1,472,127a5.24,5.24,0,0,1,.4,2.14,7.07,7.07,0,0,1-.47,2.57,5.87,5.87,0,0,1-1.38,2.08,6.29,6.29,0,0,1-2.2,1.4,8.13,8.13,0,0,1-3,.51,10.13,10.13,0,0,1-1.91-.18,11,11,0,0,1-1.8-.54,10.66,10.66,0,0,1-1.61-.84,7.71,7.71,0,0,1-1.35-1.1l1.11-1.8a1.15,1.15,0,0,1,.36-.33.91.91,0,0,1,.48-.13,1.32,1.32,0,0,1,.75.28c.28.19.6.41,1,.64a7.62,7.62,0,0,0,1.31.64,5.08,5.08,0,0,0,1.8.28,3.69,3.69,0,0,0,2.49-.76,2.73,2.73,0,0,0,.88-2.19,2,2,0,0,0-.4-1.3,3.09,3.09,0,0,0-1.05-.85,8,8,0,0,0-1.5-.58c-.56-.16-1.13-.33-1.71-.52a13.76,13.76,0,0,1-1.71-.67,5.33,5.33,0,0,1-1.49-1,4.57,4.57,0,0,1-1.06-1.58,5.9,5.9,0,0,1-.4-2.33,5.55,5.55,0,0,1,.44-2.15,5.62,5.62,0,0,1,1.28-1.87,6.35,6.35,0,0,1,2.07-1.3,7.77,7.77,0,0,1,2.83-.49,9.54,9.54,0,0,1,3.31.56,7.65,7.65,0,0,1,2.57,1.57Z"/><path class="cls-1" d="M510.21,135.51h-3.78V115.27h3.78Z"/><path class="cls-1" d="M562.22,125.36v8.19a10.69,10.69,0,0,1-3.28,1.66,12.88,12.88,0,0,1-3.73.52,12.34,12.34,0,0,1-4.49-.77,9.93,9.93,0,0,1-3.43-2.14,9.23,9.23,0,0,1-2.19-3.27,11.08,11.08,0,0,1-.77-4.16,11.56,11.56,0,0,1,.74-4.19,9.45,9.45,0,0,1,2.11-3.27,9.26,9.26,0,0,1,3.31-2.13,11.86,11.86,0,0,1,4.37-.76,12.79,12.79,0,0,1,2.3.2,11.57,11.57,0,0,1,2,.54,8.39,8.39,0,0,1,1.67.83,10.72,10.72,0,0,1,1.39,1.08l-1.08,1.71a1,1,0,0,1-.66.49,1.16,1.16,0,0,1-.88-.2l-.93-.53a5.62,5.62,0,0,0-1-.46,9.51,9.51,0,0,0-1.28-.33,9.78,9.78,0,0,0-1.63-.12,7.11,7.11,0,0,0-2.71.5,5.81,5.81,0,0,0-2.06,1.44,6.57,6.57,0,0,0-1.32,2.26,9.74,9.74,0,0,0,0,6,6.39,6.39,0,0,0,1.4,2.31,5.9,5.9,0,0,0,2.17,1.44,7.82,7.82,0,0,0,2.85.5,7.67,7.67,0,0,0,2-.24,9.91,9.91,0,0,0,1.72-.64v-3.67h-2.55a.77.77,0,0,1-.57-.21.68.68,0,0,1-.2-.49v-2.13Z"/><path class="cls-1" d="M613.73,115.27v20.24h-1.94a1.65,1.65,0,0,1-.74-.15,1.73,1.73,0,0,1-.59-.49l-10.56-13.5c.05.62.08,1.19.08,1.71v12.43h-3.32V115.27h2a2.68,2.68,0,0,1,.42,0,1,1,0,0,1,.31.08,1,1,0,0,1,.25.18,3.29,3.29,0,0,1,.29.32l10.61,13.55c0-.33,0-.65-.07-1s0-.61,0-.88v-12.3Z"/></g></g></svg>